<svg width="16" height="16" viewBox="0 0 16 16" fill="none" xmlns="http://www.w3.org/2000/svg">
<g id="Social Media Pin" clip-path="url(#clip0_1414_16409)">
<path id="Vector" d="M8.00001 1.61021e-06C6.1347 -0.00118135 4.32762 0.649478 2.89122 1.83948C1.45481 3.02947 0.479384 4.684 0.133596 6.51697C-0.212192 8.34994 0.093397 10.2461 0.997524 11.8777C1.90165 13.5092 3.34748 14.7735 5.08501 15.452C5.01501 14.819 4.95101 13.846 5.11201 13.155C5.25801 12.53 6.05001 9.178 6.05001 9.178C6.05001 9.178 5.81101 8.699 5.81101 7.991C5.81101 6.878 6.45601 6.048 7.25901 6.048C7.94101 6.048 8.27101 6.56 8.27101 7.175C8.27101 7.861 7.83401 8.887 7.60801 9.838C7.42001 10.634 8.00801 11.284 8.79301 11.284C10.215 11.284 11.308 9.784 11.308 7.62C11.308 5.705 9.93101 4.366 7.96601 4.366C5.69001 4.366 4.35401 6.073 4.35401 7.837C4.35401 8.525 4.61901 9.262 4.94901 9.663C4.97742 9.69323 4.99752 9.73031 5.00734 9.77062C5.01715 9.81093 5.01635 9.85309 5.00501 9.893C4.94401 10.145 4.80901 10.689 4.78301 10.8C4.74801 10.946 4.66701 10.977 4.51501 10.907C3.51501 10.442 2.89101 8.981 2.89101 7.807C2.89101 5.284 4.72501 2.967 8.17701 2.967C10.952 2.967 13.109 4.944 13.109 7.587C13.109 10.344 11.37 12.563 8.95801 12.563C8.14701 12.563 7.38501 12.142 7.12401 11.644L6.62601 13.546C6.44501 14.241 5.95701 15.112 5.63101 15.643C6.73098 15.9831 7.8914 16.0818 9.033 15.9323C10.1746 15.7828 11.2705 15.3886 12.2458 14.7767C13.2211 14.1648 14.0528 13.3496 14.6842 12.3868C15.3155 11.424 15.7316 10.3362 15.904 9.19787C16.0764 8.0595 16.001 6.89733 15.6831 5.79075C15.3651 4.68418 14.8121 3.65927 14.0617 2.78604C13.3113 1.91281 12.3812 1.21184 11.3351 0.731016C10.289 0.250192 9.15136 0.000842303 8.00001 1.61021e-06Z" fill="white"/>
</g>
<defs>
<clipPath id="clip0_1414_16409">
<rect width="16" height="16" fill="white"/>
</clipPath>
</defs>
</svg>
