<svg width="40" height="40" viewBox="0 0 40 40" fill="none" xmlns="http://www.w3.org/2000/svg">
<path id="Vector" d="M20 10.4291C18.1066 10.4291 16.2556 10.9904 14.6813 12.0421C13.107 13.0937 11.8799 14.5885 11.1553 16.3374C10.4307 18.0862 10.2411 20.0106 10.6105 21.8672C10.9799 23.7238 11.8917 25.4292 13.2306 26.7677C14.5694 28.1062 16.2753 29.0177 18.1323 29.387C19.9894 29.7563 21.9143 29.5668 23.6636 28.8424C25.4129 28.118 26.9081 26.8913 27.96 25.3173C29.0119 23.7434 29.5734 21.893 29.5734 20C29.5705 17.4625 28.5609 15.0298 26.7662 13.2355C24.9715 11.4413 22.5381 10.432 20 10.4291ZM20 25.1536C18.9805 25.1536 17.9838 24.8513 17.1361 24.285C16.2884 23.7188 15.6276 22.9139 15.2375 21.9722C14.8473 21.0305 14.7452 19.9943 14.9441 18.9946C15.143 17.9949 15.634 17.0766 16.3549 16.3559C17.0759 15.6351 17.9944 15.1443 18.9943 14.9454C19.9943 14.7466 21.0308 14.8486 21.9727 15.2387C22.9146 15.6288 23.7197 16.2893 24.2862 17.1368C24.8526 17.9843 25.1549 18.9807 25.1549 20C25.1549 21.3668 24.6118 22.6777 23.6451 23.6441C22.6783 24.6106 21.3672 25.1536 20 25.1536ZM36.9376 20.1454V19.8546L39.515 16.6318C39.7314 16.3617 39.8813 16.0446 39.9526 15.7061C40.0239 15.3675 40.0147 15.0169 39.9256 14.6826C39.4605 12.9287 38.7653 11.2441 37.8581 9.67259C37.6833 9.3729 37.4404 9.11859 37.149 8.93025C36.8577 8.7419 36.526 8.62482 36.1809 8.58849L32.0791 8.12835L31.8747 7.92405L31.4145 3.82143C31.3778 3.47676 31.2606 3.14556 31.0722 2.85458C30.8838 2.56361 30.6296 2.32105 30.3301 2.14651C28.758 1.2367 27.0723 0.539188 25.3169 0.0721944C24.9822 -0.0155298 24.6316 -0.0234243 24.2932 0.0491469C23.9549 0.121718 23.6384 0.272726 23.3691 0.490003L20.1454 3.0668H19.8546L16.6309 0.490003C16.3608 0.273702 16.0436 0.123867 15.705 0.0525736C15.3663 -0.0187197 15.0157 -0.00947687 14.6812 0.0795568C12.9265 0.547449 11.2414 1.24557 9.66991 2.15571C9.37132 2.32953 9.11767 2.57094 8.92935 2.86055C8.74102 3.15017 8.62326 3.4799 8.58554 3.82327L8.12528 7.92405L7.92092 8.12835L3.81724 8.58849C3.47249 8.6251 3.14119 8.74231 2.85015 8.93064C2.5591 9.11897 2.31648 9.37314 2.14189 9.67259C1.2344 11.2446 0.539191 12.9299 0.0744007 14.6844C-0.014352 15.0185 -0.023441 15.3687 0.0478649 15.707C0.119171 16.0452 0.268881 16.3619 0.484953 16.6318L3.06241 19.8546V20.1454L0.484953 23.3682C0.268596 23.6383 0.118722 23.9554 0.0474105 24.2939C-0.0239012 24.6325 -0.014656 24.9831 0.0744007 25.3174C0.542995 27.0718 1.24192 28.7565 2.15294 30.3274C2.32662 30.6257 2.56781 30.8791 2.85715 31.0674C3.1465 31.2557 3.47595 31.3735 3.81908 31.4115L7.92092 31.868L8.12528 32.0723L8.58554 36.1786C8.62216 36.5232 8.7394 36.8544 8.92778 37.1454C9.11616 37.4364 9.37039 37.679 9.66991 37.8535C11.242 38.7633 12.9277 39.4608 14.6831 39.9278C15.0178 40.0155 15.3684 40.0234 15.7068 39.9509C16.0451 39.8783 16.3616 39.7273 16.6309 39.51L19.8546 36.9332H20.1454L23.3691 39.51C23.6392 39.7263 23.9564 39.8761 24.295 39.9474C24.6337 40.0187 24.9843 40.0095 25.3188 39.9204C27.0731 39.4555 28.7582 38.7604 30.3301 37.8535C30.6294 37.6801 30.8837 37.4389 31.0727 37.1492C31.2617 36.8596 31.38 36.5296 31.4181 36.1859L31.8747 32.0852L32.0791 31.8809L36.1828 31.4115C36.5266 31.3734 36.8566 31.2551 37.1463 31.0662C37.436 30.8772 37.6773 30.6229 37.8507 30.3237C38.7608 28.7521 39.4585 27.0668 39.9256 25.3119C40.0137 24.9784 40.0225 24.6288 39.9512 24.2913C39.8799 23.9538 39.7305 23.6376 39.515 23.3682L36.9376 20.1454ZM32.497 19.2454C32.5265 19.748 32.5265 20.252 32.497 20.7546C32.4641 21.3011 32.6353 21.8402 32.9775 22.2676L35.3414 25.2217C35.1183 25.882 34.852 26.527 34.5442 27.1524L30.783 27.5702C30.2384 27.6325 29.7364 27.8949 29.3746 28.3065C29.0401 28.6832 28.6836 29.0396 28.3068 29.374C27.8951 29.7358 27.6326 30.2376 27.5704 30.782L27.1543 34.5405C26.5288 34.8494 25.8836 35.1168 25.223 35.3411L22.2682 32.976C21.876 32.6632 21.3891 32.4931 20.8874 32.4938H20.7548C20.252 32.5232 19.748 32.5232 19.2452 32.4938C18.699 32.4614 18.1601 32.6318 17.7318 32.9723L14.777 35.3374C14.1165 35.1143 13.4713 34.8481 12.8457 34.5405L12.4278 30.7802C12.3655 30.2358 12.1031 29.7339 11.6914 29.3722C11.3146 29.0378 10.958 28.6813 10.6236 28.3046C10.2617 27.8931 9.75974 27.6307 9.21517 27.5684L5.45577 27.1524C5.14679 26.5271 4.87926 25.8821 4.65491 25.2217L7.01881 22.2676C7.36098 21.8402 7.53222 21.3011 7.49932 20.7546C7.46987 20.252 7.46987 19.748 7.49932 19.2454C7.53222 18.6989 7.36098 18.1598 7.01881 17.7324L4.6586 14.7783C4.88174 14.118 5.14804 13.473 5.45577 12.8476L9.21702 12.4298C9.76158 12.3675 10.2636 12.1051 10.6254 11.6935C10.9599 11.3168 11.3164 10.9604 11.6932 10.626C12.1049 10.2642 12.3674 9.76239 12.4296 9.21797L12.8457 5.45953C13.4712 5.15063 14.1164 4.88317 14.777 4.65889L17.7318 7.02401C18.1601 7.3645 18.699 7.53491 19.2452 7.50256C19.748 7.47311 20.252 7.47311 20.7548 7.50256C21.3012 7.53597 21.8404 7.36544 22.2682 7.02401L25.223 4.65889C25.8836 4.88317 26.5288 5.15063 27.1543 5.45953L27.5722 9.21981C27.6345 9.76423 27.8969 10.2661 28.3086 10.6278C28.6854 10.9622 29.042 11.3187 29.3764 11.6954C29.7383 12.1069 30.2403 12.3693 30.7848 12.4316L34.5442 12.8476C34.8532 13.4729 35.1207 14.1179 35.3451 14.7783L32.9812 17.7324C32.6377 18.1593 32.4651 18.6985 32.497 19.2454Z" fill="white"/>
</svg>
