<svg width="36" height="44" viewBox="0 0 36 44" fill="none" xmlns="http://www.w3.org/2000/svg">
<g id="Group">
<path id="Vector" d="M32 12H4C3.46957 12 2.96086 12.2107 2.58579 12.5858C2.21071 12.9609 2 13.4696 2 14V40C2 40.5304 2.21071 41.0391 2.58579 41.4142C2.96086 41.7893 3.46957 42 4 42H32C32.5304 42 33.0391 41.7893 33.4142 41.4142C33.7893 41.0391 34 40.5304 34 40V14C34 13.4696 33.7893 12.9609 33.4142 12.5858C33.0391 12.2107 32.5304 12 32 12Z" stroke="white" stroke-width="4" stroke-linecap="round" stroke-linejoin="round"/>
<path id="Vector_2" d="M11 16V9C11 8.08075 11.1811 7.17049 11.5328 6.32122C11.8846 5.47194 12.4002 4.70026 13.0503 4.05025C13.7003 3.40024 14.4719 2.88463 15.3212 2.53284C16.1705 2.18106 17.0807 2 18 2C18.9193 2 19.8295 2.18106 20.6788 2.53284C21.5281 2.88463 22.2997 3.40024 22.9497 4.05025C23.5998 4.70026 24.1154 5.47194 24.4672 6.32122C24.8189 7.17049 25 8.08075 25 9V16" stroke="white" stroke-width="4" stroke-linecap="round" stroke-linejoin="round"/>
</g>
</svg>
