<svg width="40" height="40" viewBox="0 0 40 40" fill="none" xmlns="http://www.w3.org/2000/svg">
<path id="Vector" d="M25 0C22.6696 0.00135071 20.3716 0.545323 18.2879 1.58883C16.2042 2.63233 14.3922 4.14669 12.9953 6.01196C11.5983 7.87723 10.655 10.0422 10.2398 12.3352C9.82471 14.6283 9.94924 16.9866 10.6036 19.2232L0.626786 29.1982C0.427856 29.3974 0.270111 29.6338 0.162565 29.8939C0.0550194 30.154 -0.000220684 30.4328 6.6257e-07 30.7143V37.8571C6.6257e-07 38.4255 0.225765 38.9705 0.627629 39.3724C1.02949 39.7742 1.57454 40 2.14286 40H9.28572C9.85404 40 10.3991 39.7742 10.8009 39.3724C11.2028 38.9705 11.4286 38.4255 11.4286 37.8571V35.7143H13.5714C14.1397 35.7143 14.6848 35.4885 15.0867 35.0867C15.4885 34.6848 15.7143 34.1398 15.7143 33.5714V31.4286H17.8571C18.1386 31.4288 18.4174 31.3736 18.6775 31.266C18.9377 31.1585 19.1741 31.0007 19.3732 30.8018L20.7768 29.3964C22.8395 29.9999 25.0077 30.1532 27.1348 29.8457C29.2618 29.5383 31.298 28.7773 33.1054 27.6145C34.9127 26.4516 36.4491 24.9139 37.6104 23.1055C38.7718 21.2972 39.5309 19.2604 39.8366 17.1331C40.1422 15.0057 39.9871 12.8376 39.3818 10.7754C38.7765 8.71328 37.7352 6.80527 36.3283 5.18061C34.9214 3.55595 33.1818 2.25258 31.2273 1.35877C29.2729 0.46496 27.1492 0.0015764 25 0ZM25 25.7143C23.6488 25.7171 22.3095 25.4626 21.0536 24.9643C20.6597 24.7954 20.2242 24.7485 19.8033 24.8297C19.3825 24.9109 18.9957 25.1164 18.6929 25.4196L16.9643 27.1429H13.5714C13.0031 27.1429 12.4581 27.3686 12.0562 27.7705C11.6543 28.1724 11.4286 28.7174 11.4286 29.2857V31.4286H9.28572C8.71739 31.4286 8.17235 31.6543 7.77049 32.0562C7.36862 32.4581 7.14286 33.0031 7.14286 33.5714V35.7143H4.28572V31.6071L14.5804 21.3125C14.8833 21.0098 15.0885 20.6233 15.1697 20.2029C15.2509 19.7824 15.2042 19.3473 15.0357 18.9536C14.1901 16.8237 14.0497 14.4789 14.635 12.2633C15.2203 10.0478 16.5006 8.07824 18.2878 6.64394C20.075 5.20963 22.2749 4.38612 24.5647 4.29432C26.8544 4.20251 29.1132 4.84726 31.0095 6.13387C32.9058 7.42049 34.3396 9.2812 35.1004 11.4428C35.8612 13.6044 35.909 15.9529 35.2366 18.1436C34.5643 20.3344 33.2072 22.2518 31.3648 23.6144C29.5223 24.977 27.2916 25.713 25 25.7143ZM31.4286 11.4286C31.4286 11.9937 31.261 12.5461 30.9471 13.0159C30.6331 13.4858 30.1869 13.852 29.6648 14.0682C29.1427 14.2845 28.5683 14.3411 28.014 14.2308C27.4598 14.1206 26.9507 13.8485 26.5511 13.4489C26.1515 13.0493 25.8794 12.5402 25.7692 11.986C25.6589 11.4317 25.7155 10.8573 25.9318 10.3352C26.148 9.81312 26.5142 9.36689 26.9841 9.05294C27.4539 8.739 28.0063 8.57143 28.5714 8.57143C29.3292 8.57143 30.0559 8.87245 30.5917 9.40827C31.1276 9.94409 31.4286 10.6708 31.4286 11.4286Z" fill="white"/>
</svg>
