<svg width="37" height="40" viewBox="0 0 37 40" fill="none" xmlns="http://www.w3.org/2000/svg">
<path id="Vector" d="M20.0345 3.63636C27.089 3.63636 32.7617 9.34546 32.7617 16.3636C32.7617 21.4545 29.7981 25.8 25.489 27.8364V36.3636H12.7617V30.9091H10.9436C8.92538 30.9091 7.3072 29.2909 7.3072 27.2727V21.8182H4.57993C3.81629 21.8182 3.37993 20.9091 3.81629 20.3455L7.3072 15.7455C7.4674 12.4787 8.87853 9.3989 11.2481 7.14445C13.6176 4.89 16.7638 3.63384 20.0345 3.63636ZM20.0345 0C11.689 0 4.77993 6.21818 3.77993 14.3636L0.943566 18.1818H0.88902L0.852657 18.2364C-0.147344 19.6182 -0.274616 21.4364 0.507202 22.9455C1.16175 24.2 2.32538 25.0727 3.67084 25.3455V27.2727C3.67084 30.6364 5.99811 33.4909 9.12538 34.3091V40H29.1254V30C33.6708 26.9636 36.3981 21.9273 36.3981 16.3636C36.3981 7.32727 29.0527 0 20.0345 0ZM27.9072 15.0909L24.3436 16.0182L26.9617 18.6727C27.5981 19.2909 27.5981 20.3455 26.9617 20.9818C26.3254 21.6182 25.2708 21.6182 24.6527 20.9818L22.0163 18.3636L21.0708 21.9273C20.8527 22.8182 19.9618 23.3091 19.1254 23.0909C18.9137 23.0379 18.7146 22.9435 18.5395 22.8131C18.3644 22.6828 18.2169 22.5192 18.1054 22.3316C17.9938 22.144 17.9205 21.9362 17.8896 21.7201C17.8587 21.5041 17.8709 21.2841 17.9254 21.0727L18.889 17.5091L15.3254 18.4727C15.1141 18.5272 14.894 18.5394 14.678 18.5085C14.4619 18.4776 14.2541 18.4043 14.0665 18.2928C13.879 18.1812 13.7153 18.0337 13.585 17.8586C13.4546 17.6835 13.3602 17.4844 13.3072 17.2727C13.089 16.4545 13.5981 15.5455 14.4708 15.3273L18.0345 14.3818L15.4163 11.7455C15.1428 11.433 14.9982 11.0283 15.012 10.6133C15.0257 10.1983 15.1967 9.80404 15.4904 9.51043C15.784 9.21681 16.1782 9.0458 16.5932 9.03205C17.0083 9.01829 17.413 9.16283 17.7254 9.43636L20.3799 12.0545L21.3072 8.49091C21.5254 7.6 22.4345 7.09091 23.289 7.32727C24.1799 7.56364 24.689 8.45455 24.4527 9.32727L23.489 12.9091L27.0708 11.9455C27.9436 11.7091 28.8345 12.2182 29.0708 13.1091C29.3072 13.9636 28.7981 14.8727 27.9072 15.0909Z" fill="white"/>
</svg>
