<svg width="34" height="40" viewBox="0 0 34 40" fill="none" xmlns="http://www.w3.org/2000/svg">
<path id="Vector" d="M30.0896 0H3.34328C1.50448 0 0 1.5 0 3.33333V36.6667C0 38.5 1.50448 40 3.34328 40H30.0896C31.9284 40 33.4328 38.5 33.4328 36.6667V3.33333C33.4328 1.5 31.9284 0 30.0896 0ZM10.0299 33.3333C10.0299 34.25 9.27761 35 8.35821 35H5.01493C4.09552 35 3.34328 34.25 3.34328 33.3333V32.5C3.34328 31.5833 4.09552 30.8333 5.01493 30.8333H8.35821C9.27761 30.8333 10.0299 31.5833 10.0299 32.5V33.3333ZM10.0299 26.6667C10.0299 27.5833 9.27761 28.3333 8.35821 28.3333H5.01493C4.09552 28.3333 3.34328 27.5833 3.34328 26.6667V25.8333C3.34328 24.9167 4.09552 24.1667 5.01493 24.1667H8.35821C9.27761 24.1667 10.0299 24.9167 10.0299 25.8333V26.6667ZM10.0299 20C10.0299 20.9167 9.27761 21.6667 8.35821 21.6667H5.01493C4.09552 21.6667 3.34328 20.9167 3.34328 20V19.1667C3.34328 18.25 4.09552 17.5 5.01493 17.5H8.35821C9.27761 17.5 10.0299 18.25 10.0299 19.1667V20ZM20.0597 33.3333C20.0597 34.25 19.3075 35 18.3881 35H15.0448C14.1254 35 13.3731 34.25 13.3731 33.3333V32.5C13.3731 31.5833 14.1254 30.8333 15.0448 30.8333H18.3881C19.3075 30.8333 20.0597 31.5833 20.0597 32.5V33.3333ZM20.0597 26.6667C20.0597 27.5833 19.3075 28.3333 18.3881 28.3333H15.0448C14.1254 28.3333 13.3731 27.5833 13.3731 26.6667V25.8333C13.3731 24.9167 14.1254 24.1667 15.0448 24.1667H18.3881C19.3075 24.1667 20.0597 24.9167 20.0597 25.8333V26.6667ZM20.0597 20C20.0597 20.9167 19.3075 21.6667 18.3881 21.6667H15.0448C14.1254 21.6667 13.3731 20.9167 13.3731 20V19.1667C13.3731 18.25 14.1254 17.5 15.0448 17.5H18.3881C19.3075 17.5 20.0597 18.25 20.0597 19.1667V20ZM30.0896 33.3333C30.0896 34.25 29.3373 35 28.4179 35H25.0746C24.1552 35 23.403 34.25 23.403 33.3333V32.5C23.403 31.5833 24.1552 30.8333 25.0746 30.8333H28.4179C29.3373 30.8333 30.0896 31.5833 30.0896 32.5V33.3333ZM30.0896 26.6667C30.0896 27.5833 29.3373 28.3333 28.4179 28.3333H25.0746C24.1552 28.3333 23.403 27.5833 23.403 26.6667V25.8333C23.403 24.9167 24.1552 24.1667 25.0746 24.1667H28.4179C29.3373 24.1667 30.0896 24.9167 30.0896 25.8333V26.6667ZM30.0896 20C30.0896 20.9167 29.3373 21.6667 28.4179 21.6667H25.0746C24.1552 21.6667 23.403 20.9167 23.403 20V19.1667C23.403 18.25 24.1552 17.5 25.0746 17.5H28.4179C29.3373 17.5 30.0896 18.25 30.0896 19.1667V20ZM30.0896 12.5C30.0896 13.4167 29.3373 14.1667 28.4179 14.1667H5.01493C4.09552 14.1667 3.34328 13.4167 3.34328 12.5V5.83333C3.34328 4.91667 4.09552 4.16667 5.01493 4.16667H28.4179C29.3373 4.16667 30.0896 4.91667 30.0896 5.83333V12.5Z" fill="white"/>
</svg>
