<svg width="40" height="40" viewBox="0 0 40 40" fill="none" xmlns="http://www.w3.org/2000/svg">
<path id="Vector" d="M37.2823 0.987561L38.3614 2.07277C39.8483 3.57 39.6233 6.22417 37.8548 8.00097L15.6024 30.3802L8.39287 33.0326C7.48756 33.3673 6.60602 32.9333 6.42679 32.0669C6.36622 31.7527 6.39474 31.4276 6.50909 31.1289L9.19759 23.8156L31.3878 1.49706C33.1563 -0.279746 35.7954 -0.509663 37.2823 0.987561ZM14.6313 3.21316C14.8715 3.21316 15.1093 3.26074 15.3312 3.35318C15.5531 3.44561 15.7547 3.5811 15.9245 3.7519C16.0943 3.92269 16.2291 4.12546 16.321 4.34862C16.4129 4.57178 16.4602 4.81096 16.4602 5.05251C16.4602 5.29405 16.4129 5.53323 16.321 5.75639C16.2291 5.97955 16.0943 6.18232 15.9245 6.35312C15.7547 6.52392 15.5531 6.6594 15.3312 6.75184C15.1093 6.84427 14.8715 6.89185 14.6313 6.89185H7.31564C6.34552 6.89185 5.41514 7.27942 4.72917 7.96931C4.0432 8.6592 3.65782 9.59488 3.65782 10.5705V32.6426C3.65782 33.6183 4.0432 34.554 4.72917 35.2439C5.41514 35.9337 6.34552 36.3213 7.31564 36.3213H29.2626C30.2327 36.3213 31.1631 35.9337 31.849 35.2439C32.535 34.554 32.9204 33.6183 32.9204 32.6426V25.2853C32.9204 24.7974 33.1131 24.3296 33.4561 23.9847C33.799 23.6397 34.2642 23.4459 34.7493 23.4459C35.2343 23.4459 35.6995 23.6397 36.0425 23.9847C36.3855 24.3296 36.5782 24.7974 36.5782 25.2853V32.6426C36.5782 34.5939 35.8074 36.4653 34.4355 37.8451C33.0635 39.2248 31.2028 40 29.2626 40H7.31564C5.37541 40 3.51465 39.2248 2.1427 37.8451C0.770753 36.4653 0 34.5939 0 32.6426V10.5705C0 8.61924 0.770753 6.74786 2.1427 5.36809C3.51465 3.98831 5.37541 3.21316 7.31564 3.21316H14.6313Z" fill="white"/>
</svg>
