<svg width="38" height="40" viewBox="0 0 38 40" fill="none" xmlns="http://www.w3.org/2000/svg">
<path id="Vector" d="M17.1093 0C8.41776 0 0.385736 5.38798 1.89602 18.2079C1.62694 18.4217 1.36719 18.6511 1.16654 18.9346C0.384181 20.0349 0 21.4652 0 23.0024C0 24.9316 1.14165 26.4161 2.33308 27.5055C3.2041 28.3036 4.09534 28.8599 5.10323 29.1528C5.89647 31.6941 7.35698 33.8016 9.08969 35.2536C9.24384 35.399 9.42624 35.5114 9.62566 35.584C9.82508 35.6565 10.0373 35.6876 10.2492 35.6754C10.4612 35.6631 10.6684 35.6078 10.858 35.5128C11.0477 35.4177 11.2158 35.285 11.352 35.1228C11.4883 34.9606 11.5897 34.7723 11.6502 34.5695C11.7106 34.3668 11.7288 34.1538 11.7035 33.9438C11.6782 33.7338 11.61 33.5312 11.5032 33.3484C11.3963 33.1657 11.253 33.0066 11.0821 32.8811C9.51742 31.5686 8.20934 29.816 7.72872 27.5536C7.65174 27.2118 7.46084 26.9062 7.18714 26.6864C6.91344 26.4666 6.57308 26.3457 6.22155 26.3433C6.41286 26.3433 5.21677 25.9559 4.42352 25.2291C3.63027 24.5039 3.11078 23.5943 3.11078 23.0024C3.11078 22.2833 3.28342 21.6821 3.49962 21.211C3.71088 21.4499 3.99087 21.6182 4.30152 21.693C4.61217 21.7677 4.93839 21.7453 5.23582 21.6288C5.53324 21.5124 5.78743 21.3074 5.9638 21.0419C6.14017 20.7764 6.23017 20.4632 6.22155 20.1449V18.837C6.22384 18.7885 6.22384 18.7399 6.22155 18.6914C6.28377 17.5865 6.42997 16.5715 6.65861 15.6417C8.80349 14.9072 10.5891 16.0989 12.4431 10.6535C15.1495 18.6697 22.1581 14.0844 26.9766 13.8504C27.5428 15.2218 27.8943 16.8334 27.997 18.6914C27.9947 18.7399 27.9947 18.7885 27.997 18.837V20.1449C27.997 20.5559 28.1608 20.95 28.4525 21.2406C28.7442 21.5312 29.1399 21.6945 29.5524 21.6945V25.5205C28.8773 26.0489 28.1292 26.3433 27.997 26.3433C27.6455 26.3457 27.3051 26.4666 27.0314 26.6864C26.7577 26.9062 26.5668 27.2118 26.4898 27.5536C26.1725 29.0505 25.4664 30.3103 24.5953 31.3795C24.4645 31.5385 24.3664 31.7215 24.3066 31.9182C24.2468 32.1149 24.2264 32.3215 24.2467 32.526C24.267 32.7306 24.3275 32.9291 24.4248 33.1104C24.5222 33.2916 24.6544 33.452 24.8139 33.5823C24.9734 33.7126 25.1571 33.8104 25.3546 33.87C25.552 33.9296 25.7593 33.9499 25.9646 33.9297C26.1699 33.9094 26.3692 33.8491 26.5512 33.7522C26.7331 33.6552 26.894 33.5235 27.0249 33.3646C27.9581 32.2194 28.5771 30.721 29.0671 29.1528C29.9913 28.9203 30.8537 28.4904 31.5946 27.8929H32.6631C32.2821 29.878 31.5806 31.3764 30.8651 32.4457C29.8541 33.9565 28.9831 34.485 28.9209 34.5268C28.8758 34.55 28.3236 34.8522 26.7324 35.2055C25.5192 35.4736 23.7725 35.7603 21.4348 35.8827C21.1222 34.1549 19.3055 32.8331 17.1093 32.8331C14.6922 32.8331 12.734 34.4369 12.734 36.4158C12.734 38.3946 14.6937 40 17.1093 40C18.6195 40 19.9681 39.3554 20.7551 38.4008C23.6326 38.2861 25.8194 37.9576 27.3173 37.626C29.162 37.2185 30.0859 36.7551 30.0859 36.7551C30.1374 36.7261 30.1868 36.6935 30.2336 36.6575C30.2336 36.6575 31.621 35.72 32.9058 33.8016C33.9448 32.2489 34.9744 29.9973 35.3368 27.022C36.4692 26.1775 37.1831 24.7968 37.1831 23.2441V20.1449C37.1831 17.5772 35.2389 15.4961 32.6631 15.4961H32.4205C32.4267 4.65192 25.1568 0 17.1093 0ZM30.5727 15.3024C30.6194 15.3675 30.6738 15.4263 30.7189 15.4961H30.5727C30.5603 15.4325 30.5867 15.3659 30.5727 15.3024ZM10.8877 18.5953C10.0627 18.5953 9.27145 18.9218 8.68806 19.503C8.10468 20.0842 7.77694 20.8725 7.77694 21.6945C7.77694 22.5165 8.10468 23.3048 8.68806 23.886C9.27145 24.4672 10.0627 24.7937 10.8877 24.7937C11.7127 24.7937 12.504 24.4672 13.0874 23.886C13.6707 23.3048 13.9985 22.5165 13.9985 21.6945C13.9985 20.8725 13.6707 20.0842 13.0874 19.503C12.504 18.9218 11.7127 18.5953 10.8877 18.5953ZM23.3308 18.5953C22.5058 18.5953 21.7145 18.9218 21.1312 19.503C20.5478 20.0842 20.22 20.8725 20.22 21.6945C20.22 22.5165 20.5478 23.3048 21.1312 23.886C21.7145 24.4672 22.5058 24.7937 23.3308 24.7937C24.1558 24.7937 24.9471 24.4672 25.5305 23.886C26.1138 23.3048 26.4416 22.5165 26.4416 21.6945C26.4416 20.8725 26.1138 20.0842 25.5305 19.503C24.9471 18.9218 24.1558 18.5953 23.3308 18.5953Z" fill="white"/>
</svg>
