<svg width="48" height="40" viewBox="0 0 48 40" fill="none" xmlns="http://www.w3.org/2000/svg">
<g id="Vector">
<path d="M18.3575 29.3543L18.8235 28.8417V26.3137L11.1887 10.1961H7.6348L0 26.3137V28.9649L0.415098 29.4154C1.55519 30.6499 2.93818 31.6353 4.47725 32.3099C6.01632 32.9844 7.67822 33.3335 9.35862 33.3352H9.3998C11.0871 33.3277 12.7545 32.97 14.2964 32.2848C15.8384 31.5996 17.2212 30.6017 18.3575 29.3543ZM15.6863 27.6086C14.0125 29.271 11.7481 30.2022 9.38911 30.1981H9.35676C7.03926 30.2097 4.80839 29.3181 3.13725 27.7125V27.0196L9.41176 13.7733L15.6863 27.0196V27.6086ZM39.424 10.1961H35.8701L28.2353 26.3137V28.9649L28.6504 29.4154C29.7905 30.6499 31.1735 31.6353 32.7125 32.3099C34.2516 32.9844 35.9135 33.3335 37.5939 33.3352H37.6351C39.3224 33.3277 40.9898 32.97 42.5317 32.2847C44.0737 31.5994 45.4565 30.6015 46.5928 29.3541L47.0588 28.8417V26.3137L39.424 10.1961ZM43.9215 27.6086C42.2478 29.271 39.9834 30.2022 37.6244 30.1981H37.592C35.2745 30.2097 33.0437 29.3181 31.3725 27.7125V27.0196L37.647 13.7733L43.9215 27.0196V27.6086Z" fill="white"/>
<path d="M25.098 10.7509C25.9706 10.4886 26.7646 10.0141 27.4089 9.36977C28.0533 8.72546 28.5278 7.93147 28.7901 7.05884H39.2157V3.92159H28.7901C28.4524 2.78858 27.758 1.79486 26.8102 1.08827C25.8623 0.381688 24.7116 0 23.5294 0C22.3471 0 21.1965 0.381688 20.2486 1.08827C19.3008 1.79486 18.6064 2.78858 18.2687 3.92159H7.84313V7.05884H18.2687C18.531 7.93147 19.0055 8.72546 19.6498 9.36977C20.2942 10.0141 21.0881 10.4886 21.9608 10.7509V36.8627H11.7647V40H35.2941V36.8627H25.098V10.7509ZM21.1765 5.49022C21.1765 5.02485 21.3145 4.56993 21.573 4.183C21.8315 3.79606 22.199 3.49447 22.629 3.31639C23.0589 3.1383 23.532 3.0917 23.9884 3.18249C24.4449 3.27328 24.8641 3.49737 25.1932 3.82644C25.5222 4.1555 25.7463 4.57476 25.8371 5.03118C25.9279 5.48761 25.8813 5.96071 25.7032 6.39065C25.5251 6.82059 25.2236 7.18807 24.8366 7.44662C24.4497 7.70516 23.9948 7.84316 23.5294 7.84316C22.9054 7.84316 22.3069 7.59526 21.8656 7.154C21.4244 6.71274 21.1765 6.11426 21.1765 5.49022Z" fill="white"/>
</g>
</svg>
