<svg width="249" height="88" viewBox="0 0 249 88" fill="none" xmlns="http://www.w3.org/2000/svg">
<g id="Group 24">
<path id="Vector" d="M92.2483 36.5715L92.1886 36.6301C91.967 36.9462 91.7292 37.2672 91.4777 37.5944C91.2249 37.9203 90.9685 38.262 90.7058 38.6172C90.6859 38.6575 90.661 38.6917 90.6298 38.721C90.5987 38.7502 90.5738 38.7857 90.5539 38.8247C89.9077 39.6755 89.3039 40.431 88.7387 41.0938C88.1734 41.7566 87.78 42.0971 87.5584 42.1166H87.5136C87.5036 42.1166 87.4875 42.1069 87.4675 42.0873C87.4476 42.0678 87.4264 42.0519 87.4078 42.0422C87.3879 42.0324 87.3667 42.0178 87.348 41.9982C87.3281 41.9982 87.3181 41.9885 87.3181 41.9689C87.2584 41.9494 87.2073 41.9189 87.1675 41.8798C87.1276 41.8408 87.0866 41.7907 87.0467 41.7322L86.169 39.9818L78.6367 24.7977C78.5957 24.7391 78.5558 24.6695 78.516 24.5902C78.4749 24.5121 78.4351 24.4328 78.3952 24.3534C78.2334 24.0373 78.0578 23.7504 77.8661 23.4929C77.6744 23.2366 77.3967 23.0584 77.0344 22.9595C77.0145 22.9595 76.9934 22.9546 76.9747 22.9448C76.9548 22.9351 76.9336 22.9302 76.9137 22.9302H76.7929C76.712 22.9302 76.636 22.94 76.5663 22.9595C76.4953 22.979 76.4194 22.9998 76.3397 23.0193C76.219 23.0596 76.1019 23.1084 75.9924 23.167C75.8816 23.2256 75.7757 23.2854 75.6749 23.3452C75.4334 23.4844 75.2105 23.6027 75.0101 23.7016C74.8084 23.8005 74.6664 23.7907 74.5868 23.6723C74.5668 23.6528 74.5569 23.6381 74.5569 23.6272V23.5832C74.537 23.4648 74.6528 23.322 74.9055 23.1536C75.157 22.9864 75.4446 22.8118 75.767 22.6348C75.8069 22.5958 75.8579 22.5604 75.9177 22.5311C75.9787 22.5018 76.0384 22.4676 76.0994 22.4273C76.1791 22.3687 76.2551 22.3138 76.326 22.2638C76.397 22.2149 76.4617 22.1698 76.5227 22.1307C76.6634 22.0123 76.8103 21.8939 76.961 21.7743C77.1116 21.6559 77.2585 21.5375 77.3992 21.4191C77.8624 21.0432 78.3118 20.6929 78.7451 20.3658C79.1783 20.0399 79.5867 19.8763 79.9701 19.8763H80C80.5441 19.8763 80.9786 20.0936 81.3011 20.5293C81.6235 20.9651 81.9161 21.4387 82.1788 21.9525C82.1788 21.972 82.1838 21.9879 82.1937 21.9965C82.2037 22.0062 82.2087 22.0209 82.2087 22.0404L82.5112 22.6043L89.9526 37.7884C90.4157 37.1757 90.8303 36.6069 91.1926 36.0833C91.5549 35.5596 91.8885 35.0506 92.1911 34.5563C92.3118 34.3781 92.4226 34.2048 92.5235 34.0376C92.6243 33.8703 92.7252 33.7068 92.826 33.5481C93.0476 33.1526 93.2804 32.7474 93.522 32.3324C93.7635 31.9174 94.0162 31.4621 94.2777 30.9678C94.701 30.1964 95.0795 29.4848 95.4119 28.833C95.7443 28.18 96.0518 27.5379 96.3344 26.9057C96.5162 26.5492 96.683 26.1843 96.8337 25.8084C96.9843 25.4336 97.1412 25.0577 97.303 24.6818C97.4649 24.2863 97.6255 23.8713 97.7873 23.4368C97.9479 23.0022 98.1198 22.5372 98.3015 22.0428L90.8602 21.6876L93.7635 20.0264C93.8033 20.0264 93.8444 20.0167 93.8843 19.9971C93.9241 19.9776 93.9652 19.9678 94.005 19.9678C94.086 19.9288 94.1669 19.8983 94.2466 19.8787C94.3262 19.8592 94.4072 19.8397 94.4881 19.8201C94.6089 19.7811 94.7197 19.7603 94.8205 19.7603H95.0932C95.1728 19.7408 95.2488 19.7359 95.3197 19.7457C95.3907 19.7567 95.4555 19.7603 95.5165 19.7603H95.758L101.929 19.731C101.728 20.2449 101.103 21.5656 100.054 23.6906C99.0062 25.8157 97.755 28.0945 96.3033 30.5259C95.6571 31.5927 94.9973 32.6461 94.3213 33.6848C93.6452 34.7223 92.9555 35.6963 92.2496 36.6057V36.5764L92.2483 36.5715ZM113.695 12.8457L113.725 12.9055V12.9348H113.754C113.834 12.9348 113.916 12.9641 113.996 13.0239C114.076 13.0837 114.157 13.1423 114.238 13.2021C114.238 13.2216 114.247 13.2375 114.267 13.2461C114.287 13.2558 114.297 13.2705 114.297 13.29C114.337 13.3095 114.373 13.3352 114.403 13.3645C114.433 13.3937 114.458 13.4194 114.479 13.4389L115.749 14.4764L115.931 14.6546C115.99 14.7132 116.051 14.7633 116.112 14.8023C116.112 14.8218 116.117 14.8365 116.127 14.8462C116.137 14.856 116.152 14.8609 116.173 14.8609C116.334 15.0196 116.481 15.1575 116.612 15.2759C116.742 15.3943 116.818 15.4736 116.838 15.5127C116.858 15.5322 116.868 15.5566 116.868 15.5871V15.6616C116.868 15.78 116.832 15.8837 116.762 15.9729C116.691 16.062 116.606 16.1462 116.505 16.2255C116.464 16.2658 116.434 16.2951 116.414 16.3146C116.373 16.3342 116.338 16.3586 116.308 16.3891L116.232 16.4635L114.538 18.154C114.518 18.1943 114.496 18.2285 114.477 18.2578C114.457 18.2871 114.426 18.3127 114.386 18.3322C114.366 18.3518 114.345 18.3725 114.325 18.3908C114.305 18.4091 114.295 18.4311 114.295 18.4507C114.234 18.4909 114.184 18.5202 114.144 18.5398C114.103 18.5593 114.063 18.569 114.023 18.569C113.982 18.5495 113.928 18.5239 113.857 18.4946C113.786 18.4653 113.721 18.4201 113.66 18.3615C113.64 18.342 113.624 18.3274 113.615 18.3176C113.605 18.3078 113.59 18.303 113.57 18.303C113.55 18.2834 113.534 18.2688 113.524 18.2578C113.514 18.248 113.499 18.2334 113.479 18.2139L111.634 16.5233C111.593 16.5233 111.558 16.5087 111.528 16.4794C111.499 16.4501 111.462 16.4159 111.423 16.3757C111.403 16.3561 111.381 16.3366 111.362 16.3171C111.342 16.2975 111.32 16.278 111.302 16.2572C111.201 16.1584 111.115 16.0644 111.044 15.9753C110.973 15.8862 110.938 15.8117 110.938 15.7531C110.958 15.6933 111.009 15.6152 111.089 15.5164C111.17 15.4175 111.261 15.3186 111.362 15.2197C111.381 15.2002 111.401 15.1807 111.423 15.1599L111.499 15.0855C111.528 15.0562 111.553 15.0318 111.574 15.011L113.117 13.3205C113.137 13.3205 113.152 13.3156 113.163 13.3059C113.173 13.2961 113.178 13.2815 113.178 13.2607C113.218 13.2216 113.258 13.1826 113.299 13.1423C113.34 13.102 113.378 13.0727 113.42 13.0532C113.459 12.9934 113.505 12.9495 113.555 12.9202C113.605 12.8909 113.651 12.875 113.691 12.875V12.8457H113.695ZM115.116 26.5761V41.7602L110.972 39.7438V19.7555H117.052L120.199 21.8024H115.116V26.5773V26.5761ZM134.839 36.4519L134.536 21.2678L129.092 21.3264L131.814 19.6651C131.854 19.6651 131.894 19.6554 131.935 19.6358C131.975 19.6163 132.006 19.5968 132.026 19.576C132.147 19.5174 132.263 19.4674 132.375 19.4283C132.484 19.3893 132.611 19.3588 132.752 19.3392C132.812 19.3197 132.868 19.3099 132.919 19.3099H133.63L138.742 19.3697L138.712 27.97C138.993 27.8516 139.236 27.743 139.438 27.6441C139.639 27.5452 139.841 27.4464 140.043 27.3475C140.082 27.328 140.129 27.3085 140.178 27.2889C140.228 27.2694 140.274 27.2401 140.315 27.1998C140.638 27.0412 140.985 26.8288 141.359 26.5627C141.732 26.2954 142.241 25.8755 142.886 25.3018C143.148 25.065 143.4 24.827 143.643 24.5902C143.885 24.3534 144.116 24.1154 144.339 23.8786C144.46 23.7211 144.592 23.5674 144.733 23.4184C144.873 23.2707 145.005 23.1267 145.126 22.9888C145.589 22.4749 146.068 21.9708 146.563 21.4765C147.057 20.9821 147.647 20.5183 148.333 20.0826C148.736 19.8263 149.229 19.6078 149.815 19.4296C150.4 19.2514 150.994 19.1134 151.6 19.0146C151.802 18.9755 152.003 18.945 152.205 18.9255C152.407 18.9059 152.598 18.8864 152.78 18.8669C152.458 19.1439 152.165 19.4051 151.903 19.6529C151.64 19.9007 151.377 20.1424 151.116 20.3792C151.075 20.4195 151.035 20.4536 150.995 20.4829C150.955 20.5122 150.914 20.5476 150.874 20.5867C150.611 20.8235 150.34 21.0615 150.057 21.2983C149.775 21.5351 149.462 21.7926 149.12 22.0697C148.595 22.5042 148.106 22.8997 147.652 23.2561C147.199 23.6113 146.749 23.9579 146.306 24.2936C146.166 24.3925 146.024 24.4962 145.883 24.6049C145.741 24.7135 145.59 24.8172 145.429 24.9161C145.005 25.2322 144.562 25.5496 144.098 25.8645C143.633 26.1806 143.13 26.5175 142.585 26.8727L150.964 34.9982C151.185 35.235 151.463 35.5023 151.795 35.7989C152.129 36.0955 152.486 36.3921 152.87 36.6887C153.152 36.9059 153.435 37.1244 153.716 37.3417C153.999 37.559 154.292 37.7567 154.594 37.9349C155.017 38.1924 155.436 38.4097 155.849 38.5879C156.263 38.7661 156.64 38.865 156.983 38.8845H157.135C157.296 38.8845 157.463 38.8748 157.634 38.8552C157.805 38.8357 157.982 38.8064 158.164 38.7661C158.324 38.7466 158.491 38.7124 158.663 38.6624C158.833 38.6135 159 38.5684 159.162 38.5293C159.485 38.4305 159.772 38.3414 160.024 38.262C160.276 38.1839 160.473 38.1436 160.614 38.1436C160.674 38.1436 160.72 38.1485 160.749 38.1583C160.779 38.1693 160.804 38.1937 160.825 38.2327C160.865 38.3511 160.66 38.5098 160.205 38.7075C159.751 38.9053 159.253 39.1433 158.709 39.4191C158.507 39.4985 158.316 39.5876 158.134 39.6864C157.953 39.7853 157.781 39.8842 157.62 39.983C157.337 40.1613 157.069 40.3236 156.818 40.4725C156.565 40.6202 156.319 40.7545 156.077 40.8729C155.755 41.0315 155.421 41.1548 155.079 41.2439C154.736 41.333 154.363 41.377 153.959 41.377H153.566C152.738 41.3184 151.957 41.0608 151.221 40.6055C150.486 40.1515 149.765 39.5876 149.059 38.915C148.717 38.5989 148.373 38.2681 148.031 37.9215C147.687 37.576 147.335 37.2245 146.972 36.8681C146.951 36.8486 146.927 36.8229 146.896 36.7936C146.865 36.7644 146.83 36.7302 146.791 36.6899L139.924 29.9876C139.904 29.9876 139.865 29.9632 139.804 29.9132C139.743 29.8644 139.672 29.8192 139.592 29.7801C139.551 29.7411 139.516 29.7106 139.486 29.691C139.455 29.6715 139.42 29.652 139.38 29.6325C139.321 29.5934 139.265 29.5629 139.215 29.5434C139.164 29.5238 139.119 29.5141 139.078 29.5141C139.037 29.5141 139.002 29.5238 138.972 29.5434C138.942 29.5629 138.916 29.5934 138.896 29.6325C138.876 29.652 138.866 29.6825 138.866 29.7216V30.0475L138.957 39.8939L134.964 41.6443L134.844 36.4543L134.839 36.4519ZM172.348 12.8457L172.378 12.9055V12.9348H172.408C172.489 12.9348 172.57 12.9641 172.649 13.0239C172.73 13.0837 172.811 13.1423 172.891 13.2021C172.891 13.2216 172.901 13.2375 172.921 13.2461C172.941 13.2558 172.95 13.2705 172.95 13.29C172.99 13.3095 173.026 13.3352 173.056 13.3645C173.086 13.3937 173.111 13.4194 173.132 13.4389L174.403 14.4764C174.463 14.5362 174.524 14.5948 174.584 14.6546C174.645 14.7132 174.705 14.7633 174.766 14.8023C174.766 14.8218 174.771 14.8365 174.781 14.8462C174.791 14.856 174.806 14.8609 174.825 14.8609C174.987 15.0196 175.133 15.1575 175.264 15.2759C175.394 15.3943 175.47 15.4736 175.49 15.5127C175.51 15.5322 175.52 15.5566 175.52 15.5871V15.6616C175.52 15.78 175.484 15.8837 175.414 15.9729C175.343 16.062 175.259 16.1462 175.157 16.2255C175.117 16.2658 175.086 16.2951 175.066 16.3146C175.025 16.3342 174.99 16.3586 174.96 16.3891C174.93 16.4184 174.904 16.444 174.884 16.4635L173.19 18.154C173.17 18.1943 173.15 18.2285 173.129 18.2578C173.109 18.2871 173.079 18.3127 173.038 18.3322C173.016 18.3518 172.997 18.3725 172.978 18.3908C172.957 18.4104 172.947 18.4311 172.947 18.4507C172.887 18.4909 172.836 18.5202 172.796 18.5398C172.755 18.5593 172.715 18.569 172.675 18.569C172.635 18.5495 172.579 18.5239 172.51 18.4946C172.439 18.4653 172.373 18.4201 172.313 18.3615C172.293 18.342 172.278 18.3274 172.268 18.3176C172.257 18.3078 172.242 18.303 172.223 18.303C172.202 18.2834 172.187 18.2688 172.179 18.2578C172.167 18.248 172.152 18.2334 172.133 18.2139L170.287 16.5233C170.246 16.5233 170.211 16.5087 170.182 16.4794C170.152 16.4501 170.116 16.4159 170.076 16.3757C170.056 16.3561 170.035 16.3366 170.016 16.3171C169.995 16.2975 169.975 16.278 169.956 16.2572C169.855 16.1584 169.77 16.0644 169.699 15.9753C169.628 15.8862 169.593 15.8117 169.593 15.7531C169.613 15.6933 169.664 15.6152 169.745 15.5164C169.824 15.4175 169.915 15.3186 170.017 15.2197C170.037 15.2002 170.057 15.1807 170.077 15.1599C170.097 15.1404 170.122 15.116 170.153 15.0855C170.184 15.055 170.208 15.0318 170.229 15.011L171.771 13.3205C171.791 13.3205 171.806 13.3156 171.816 13.3059C171.826 13.2961 171.831 13.2815 171.831 13.2607C171.871 13.2216 171.912 13.1826 171.952 13.1423C171.992 13.1032 172.033 13.0727 172.073 13.0532C172.113 12.9934 172.159 12.9495 172.21 12.9202C172.259 12.8909 172.306 12.875 172.345 12.875V12.8457H172.348ZM173.77 26.5761V41.7602L169.625 39.7438V19.7555H175.706L178.852 21.8024H173.77V26.5773V26.5761ZM193.159 37.0744V21.8903L187.806 21.8012L191.587 19.8433H197.365V22.8387L198.273 22.2455C198.555 22.0868 198.848 21.9196 199.15 21.7414C199.453 21.5631 199.755 21.3959 200.058 21.2372C201.045 20.7039 201.999 20.2535 202.916 19.8873C203.834 19.5211 204.616 19.2892 205.261 19.1903H205.337C205.367 19.1903 205.391 19.1806 205.413 19.161H205.564C206.109 19.161 206.76 19.3246 207.515 19.6505C208.271 19.9764 209.053 20.417 209.86 20.9699C211.272 21.9586 212.563 23.2341 213.732 24.7953C214.901 26.3576 215.486 28.0079 215.486 29.7484C215.486 30.9153 215.213 32.0468 214.669 33.1441C214.125 34.2414 213.52 35.2252 212.854 36.0955C212.41 36.6692 211.987 37.1684 211.584 37.5931C211.179 38.0179 210.858 38.3499 210.615 38.5867L206.653 42.3534C206.532 42.4718 206.38 42.6195 206.198 42.7977C206.016 42.9759 205.815 43.1529 205.593 43.3311C205.552 43.3702 205.512 43.4092 205.472 43.4495C205.433 43.4886 205.391 43.5276 205.352 43.5679C204.988 43.9036 204.651 44.1758 204.338 44.3833C204.026 44.5908 203.849 44.6152 203.809 44.4577C203.768 44.3393 203.885 44.1111 204.156 43.7754C204.429 43.4385 204.727 43.0833 205.049 42.7074C205.049 42.6879 205.054 42.672 205.064 42.6635C205.074 42.6537 205.089 42.639 205.109 42.6183C205.23 42.4804 205.34 42.3461 205.441 42.2179C205.542 42.0886 205.643 41.9653 205.744 41.8469L206.984 40.2748C207.387 39.7804 207.771 39.2763 208.133 38.7625C208.495 38.2486 208.819 37.7347 209.1 37.2196C209.705 36.2114 210.18 35.1886 210.522 34.1499C210.864 33.1124 211.056 32.0492 211.097 30.9617V30.7835C211.097 29.4787 210.754 28.2581 210.069 27.1205C209.383 25.9841 208.637 25.0296 207.83 24.2582C207.528 23.9811 207.225 23.7346 206.923 23.5173C206.62 23.3 206.338 23.1218 206.075 22.9839L204.17 21.9159C204.129 21.9159 204.044 21.8915 203.912 21.8414C203.78 21.7926 203.615 21.7377 203.413 21.6779C203.251 21.6181 203.065 21.5644 202.854 21.5143C202.642 21.4655 202.426 21.4301 202.203 21.4106C202.122 21.391 202.046 21.3813 201.976 21.3813H201.78C201.679 21.3813 201.578 21.3862 201.477 21.3959C201.376 21.4057 201.275 21.4203 201.175 21.4399C200.347 21.6181 199.571 22.0624 198.845 22.774C198.119 23.4856 197.625 24.257 197.364 25.087C197.323 25.2652 197.288 25.4385 197.258 25.6057C197.228 25.7742 197.213 25.9365 197.213 26.0952V40.1222L193.159 41.6052V37.0683V37.0744ZM230.608 38.854L230.578 38.9138C228.984 37.7079 227.579 36.4226 226.357 35.058C225.136 33.6934 224.497 32.2018 224.436 30.5796V30.0462C224.476 29.038 224.678 28.0591 225.041 27.1107C225.404 26.1623 225.797 25.3421 226.22 24.6488C226.402 24.3717 226.578 24.1203 226.749 23.892C226.92 23.665 227.077 23.4721 227.219 23.3135C227.239 23.2744 227.51 23.2 228.035 23.0913C228.56 22.9827 229.134 22.8387 229.76 22.6617C230.021 22.5836 230.279 22.503 230.532 22.4249C230.783 22.3468 231.02 22.2674 231.243 22.1881C231.404 22.1283 231.565 22.0599 231.727 21.9806C231.888 21.9025 232.049 21.8134 232.211 21.7133C232.372 21.6352 232.529 21.5461 232.679 21.446C232.831 21.3471 232.977 21.2482 233.118 21.1494C233.642 20.8332 234.101 20.5366 234.495 20.2596C234.888 19.9825 235.144 19.8446 235.266 19.8446H235.402C235.452 19.8446 235.508 19.8348 235.569 19.8153H235.901C236.587 19.8153 237.454 19.8555 238.503 19.9337C239.552 20.013 240.631 20.1314 241.739 20.2889C243.333 20.4866 244.819 20.7295 246.201 21.0151C247.582 21.3019 248.465 21.6034 248.848 21.9196C248.888 21.9598 248.924 21.9989 248.954 22.038C248.984 22.0782 248.999 22.1173 248.999 22.1564V22.2455C248.999 22.3846 248.964 22.503 248.893 22.6019C248.822 22.7007 248.746 22.7996 248.666 22.8985C248.645 22.918 248.63 22.9388 248.622 22.9571C248.61 22.9766 248.595 22.9973 248.576 23.0169C248.536 23.0571 248.5 23.0962 248.47 23.1353C248.44 23.1755 248.404 23.2244 248.364 23.283L246.64 25.596C246.6 25.6546 246.559 25.7144 246.519 25.7742C246.478 25.834 246.438 25.8926 246.398 25.9524C246.358 25.9927 246.317 26.0415 246.277 26.1001C246.236 26.1587 246.196 26.2087 246.156 26.2478C246.036 26.3662 245.93 26.4553 245.839 26.5151C245.748 26.5737 245.662 26.5737 245.581 26.5151C245.561 26.4955 245.566 26.4309 245.597 26.3222C245.627 26.2136 245.673 26.0805 245.733 25.9219C245.753 25.8633 245.773 25.7888 245.793 25.6997C245.813 25.6106 245.833 25.5264 245.853 25.4471C245.853 25.3872 245.858 25.3335 245.869 25.2835C245.879 25.2347 245.884 25.1797 245.884 25.1199V24.9417C245.783 24.4669 245.429 24.0971 244.826 23.8298C244.22 23.5625 243.554 23.3599 242.829 23.2219C242.607 23.1829 242.379 23.1438 242.149 23.1035C241.917 23.0645 241.689 23.034 241.468 23.0144L236.477 22.3614C236.335 22.3614 236.184 22.3516 236.023 22.3321C235.862 22.3126 235.711 22.2931 235.569 22.2723C235.266 22.2333 234.964 22.2027 234.661 22.1832C234.359 22.1637 234.056 22.1539 233.754 22.1539C233.068 22.1539 232.433 22.2577 231.848 22.4652C231.263 22.6727 230.809 23.073 230.487 23.6662C229.902 24.7538 229.478 25.7327 229.217 26.6017C228.954 27.472 228.824 28.2727 228.824 29.0039C228.804 30.5064 229.237 31.7477 230.125 32.7254C231.012 33.7043 232.031 34.599 233.18 35.4095L236.296 37.6041C236.417 37.703 236.562 37.8019 236.734 37.9007C236.905 37.9996 237.102 38.1082 237.324 38.2266C237.768 38.4439 238.278 38.6465 238.852 38.8345C239.427 39.0224 240.016 39.136 240.621 39.1762C240.682 39.1958 240.737 39.2055 240.788 39.2055H241.226C241.448 39.2055 241.66 39.2007 241.861 39.1909C242.063 39.1811 242.255 39.1567 242.436 39.1164C242.658 39.0774 242.875 39.0273 243.086 38.9687C243.298 38.9102 243.536 38.8406 243.797 38.7612L244.22 31.7026L242.768 31.6135H241.709C241.569 31.6135 241.417 31.6184 241.256 31.6281C241.094 31.6379 240.913 31.6525 240.712 31.6721C240.51 31.6721 240.319 31.6769 240.137 31.6867C239.955 31.6965 239.773 31.7123 239.593 31.7319C239.411 31.7514 239.224 31.7722 239.034 31.7905C238.842 31.81 238.625 31.8307 238.383 31.849C238.604 31.7111 238.816 31.5927 239.019 31.4939C239.221 31.395 239.422 31.2961 239.624 31.1973C239.765 31.1179 239.907 31.0496 240.047 30.9898C240.188 30.9312 240.33 30.8714 240.471 30.8115C240.571 30.7725 240.672 30.7322 240.773 30.6931C240.874 30.6541 240.975 30.6138 241.076 30.5747C241.358 30.4759 241.625 30.3721 241.877 30.2635C242.13 30.1549 242.377 30.0609 242.618 29.9815C242.9 29.8827 243.193 29.8033 243.496 29.7448C243.798 29.6849 244.131 29.6557 244.494 29.6557L248.487 29.6264L247.429 40.3321V40.7471C247.429 40.8851 247.424 41.0193 247.414 41.1475C247.404 41.2769 247.388 41.3989 247.369 41.5185C247.328 41.6565 247.283 41.8103 247.232 41.9787C247.182 42.1459 247.126 42.3193 247.067 42.4975C246.925 42.8722 246.743 43.1798 246.523 43.4166C246.301 43.6534 246.058 43.8706 245.797 44.0696C245.635 44.2075 245.474 44.3405 245.312 44.4699C245.151 44.5981 244.99 44.7409 244.829 44.8996C244.788 44.9191 244.753 44.9447 244.723 44.974C244.694 45.0033 244.669 45.0375 244.648 45.0778C244.547 45.1962 244.436 45.3146 244.315 45.433C244.194 45.5514 244.084 45.6808 243.983 45.8187C243.962 45.8382 243.942 45.8577 243.922 45.8785C243.902 45.898 243.882 45.9176 243.862 45.9371C243.5 46.3326 243.166 46.6938 242.863 47.0197C242.561 47.3456 242.359 47.4897 242.258 47.4494V47.4201C242.238 47.4201 242.229 47.4103 242.229 47.3908C242.229 47.3115 242.278 47.1235 242.38 46.8269C242.481 46.5303 242.592 46.1934 242.713 45.8187C242.733 45.7393 242.758 45.6551 242.789 45.566C242.819 45.4769 242.855 45.3829 242.895 45.2841C242.934 45.1059 242.98 44.9325 243.03 44.7653C243.08 44.5981 243.116 44.4345 243.136 44.2759C243.216 43.801 243.287 43.3714 243.348 42.9857C243.409 42.6 243.449 42.2192 243.469 41.8444C243.469 41.6858 243.473 41.5185 243.483 41.3403C243.493 41.1621 243.498 40.9839 243.498 40.8069V40.1991C243.498 39.9916 243.487 39.7792 243.469 39.5619C243.348 39.6205 243.161 39.6999 242.91 39.7987C242.657 39.8976 242.39 40.0062 242.108 40.1246C242.007 40.1649 241.911 40.2089 241.82 40.2577C241.729 40.3077 241.643 40.3517 241.562 40.3907C241.26 40.5494 240.967 40.6922 240.685 40.8204C240.402 40.9498 240.11 41.073 239.807 41.1914C239.384 41.3501 238.955 41.4685 238.522 41.5478C238.089 41.626 237.639 41.6662 237.176 41.6662C236.249 41.6662 235.255 41.4587 234.197 41.0437C233.139 40.6287 231.944 39.9074 230.613 38.8784V38.8491L230.608 38.854ZM86.1453 57.2483C86.4977 57.2483 86.8139 57.1897 87.0915 57.0737C87.3692 56.9565 87.6045 56.7942 87.7962 56.5843C87.9879 56.3743 88.1361 56.1241 88.2369 55.8324C88.3378 55.5407 88.3888 55.2197 88.3888 54.8706V49.7905H89.5367V54.8706C89.5367 55.3527 89.4583 55.8007 89.3014 56.212C89.1446 56.6245 88.9204 56.981 88.6291 57.2825C88.3378 57.5839 87.9817 57.8195 87.5609 57.9916C87.1401 58.1625 86.6682 58.2479 86.1453 58.2479C85.6224 58.2479 85.1493 58.1625 84.7298 57.9916C84.309 57.8207 83.9529 57.5839 83.6591 57.2825C83.3653 56.981 83.1412 56.6245 82.9843 56.212C82.8274 55.8007 82.749 55.3527 82.749 54.8706V49.7905H83.8969V54.8645C83.8969 55.2148 83.9479 55.5358 84.0488 55.8263C84.1496 56.1168 84.2965 56.3682 84.4895 56.5782C84.6812 56.7881 84.9178 56.9529 85.1967 57.0713C85.4768 57.1897 85.793 57.2495 86.1453 57.2495V57.2483ZM114.218 49.7893V58.1466H113.641C113.55 58.1466 113.473 58.1308 113.412 58.1002C113.351 58.0697 113.29 58.016 113.23 57.9428L108.299 51.6433C108.308 51.741 108.313 51.8362 108.316 51.929C108.32 52.0229 108.323 52.1096 108.323 52.1914V58.1454H107.312V49.788H107.907C107.958 49.788 108.001 49.7905 108.037 49.7966C108.074 49.8027 108.105 49.8124 108.133 49.8259C108.161 49.8393 108.188 49.8588 108.217 49.8845C108.244 49.9101 108.274 49.9418 108.306 49.9809L113.238 56.273C113.229 56.1717 113.223 56.0741 113.217 55.9789C113.21 55.8837 113.208 55.7933 113.208 55.7079V49.788H114.219L114.218 49.7893ZM133.254 58.1466H132.1V49.7893H133.254V58.1466ZM158.067 49.7893L154.593 58.1466H153.557L150.084 49.7893H151.005C151.108 49.7893 151.192 49.8149 151.255 49.8649C151.319 49.9162 151.366 49.9797 151.398 50.0578L153.801 55.9544C153.852 56.0863 153.903 56.2303 153.953 56.3865C154.003 56.5415 154.046 56.7051 154.086 56.876C154.126 56.7051 154.168 56.5415 154.212 56.3865C154.256 56.2303 154.303 56.0875 154.355 55.9544L156.752 50.0578C156.775 49.9919 156.823 49.9308 156.892 49.8735C156.962 49.8173 157.046 49.7893 157.145 49.7893H158.067ZM180.154 57.2251L180.148 58.1466H174.895V49.7893H180.148V50.7108H176.049V53.4876H179.368V54.3738H176.049V57.2263H180.154V57.2251ZM203.77 58.1466H202.747C202.537 58.1466 202.382 58.0673 202.283 57.9074L200.069 54.9206C200.002 54.8266 199.93 54.7607 199.852 54.7192C199.775 54.6777 199.654 54.6582 199.493 54.6582H198.619V58.1454H197.471V49.788H199.88C200.419 49.788 200.885 49.8417 201.278 49.9479C201.67 50.0553 201.995 50.2091 202.25 50.4118C202.507 50.6144 202.696 50.8585 202.819 51.1441C202.941 51.4297 203.004 51.7495 203.004 52.1035C203.004 52.3989 202.955 52.6747 202.86 52.931C202.766 53.1874 202.628 53.4181 202.447 53.6219C202.266 53.8257 202.046 54.0003 201.786 54.1431C201.527 54.2871 201.232 54.3958 200.903 54.4702C201.05 54.552 201.177 54.6704 201.284 54.8254L203.77 58.1442V58.1466ZM199.833 53.8367C200.166 53.8367 200.46 53.7964 200.715 53.7171C200.972 53.6378 201.186 53.5243 201.358 53.379C201.531 53.2338 201.66 53.0592 201.747 52.8566C201.834 52.6552 201.878 52.4306 201.878 52.1865C201.878 51.6885 201.711 51.3138 201.379 51.0611C201.045 50.8084 200.546 50.6815 199.88 50.6815H198.619V53.8367H199.833ZM224.99 51.0953C224.954 51.1539 224.916 51.1978 224.874 51.2271C224.832 51.2564 224.782 51.2711 224.723 51.2711C224.655 51.2711 224.576 51.2381 224.485 51.1722C224.393 51.1063 224.279 51.033 224.142 50.9537C224.005 50.8744 223.841 50.8011 223.649 50.7352C223.456 50.6693 223.224 50.6363 222.95 50.6363C222.692 50.6363 222.465 50.6705 222.269 50.7389C222.072 50.8072 221.908 50.8988 221.776 51.0159C221.642 51.1331 221.543 51.2698 221.474 51.4273C221.407 51.5847 221.374 51.7556 221.374 51.9375C221.374 52.1706 221.432 52.3647 221.549 52.5185C221.666 52.6723 221.82 52.8029 222.013 52.9127C222.206 53.0226 222.424 53.1154 222.668 53.1959C222.912 53.2753 223.161 53.3582 223.418 53.4437C223.673 53.5291 223.923 53.6256 224.167 53.733C224.411 53.8404 224.629 53.9747 224.822 54.1382C225.014 54.3018 225.17 54.5019 225.287 54.7387C225.404 54.9755 225.462 55.2673 225.462 55.6139C225.462 55.9801 225.399 56.3231 225.272 56.6429C225.145 56.9639 224.959 57.2422 224.715 57.4802C224.471 57.717 224.172 57.9037 223.817 58.0404C223.463 58.1759 223.059 58.2443 222.606 58.2443C222.051 58.2443 221.548 58.1466 221.095 57.9501C220.643 57.7536 220.255 57.4887 219.934 57.1543L220.268 56.6172C220.3 56.5745 220.339 56.5379 220.384 56.5098C220.429 56.4805 220.48 56.4659 220.536 56.4659C220.587 56.4659 220.645 56.4866 220.711 56.5269C220.777 56.5672 220.851 56.6197 220.934 56.6819C221.017 56.7442 221.112 56.8125 221.219 56.8858C221.326 56.959 221.448 57.0273 221.585 57.0896C221.722 57.1518 221.878 57.2031 222.052 57.2446C222.226 57.2849 222.423 57.3056 222.641 57.3056C222.915 57.3056 223.159 57.269 223.373 57.1946C223.587 57.1201 223.768 57.0164 223.917 56.8821C224.065 56.7478 224.18 56.5879 224.258 56.4012C224.338 56.2144 224.378 56.0069 224.378 55.7775C224.378 55.5248 224.319 55.3173 224.202 55.1562C224.085 54.9951 223.932 54.8596 223.741 54.751C223.551 54.6423 223.333 54.5496 223.087 54.4739C222.84 54.3982 222.591 54.3201 222.337 54.2407C222.083 54.1614 221.833 54.0686 221.588 53.9637C221.341 53.8587 221.123 53.7232 220.933 53.556C220.742 53.3888 220.588 53.18 220.472 52.9286C220.356 52.6772 220.297 52.3671 220.297 51.9985C220.297 51.7031 220.355 51.4175 220.472 51.1417C220.589 50.8658 220.76 50.6205 220.984 50.4069C221.208 50.1933 221.483 50.0224 221.812 49.893C222.139 49.7648 222.514 49.7002 222.938 49.7002C223.414 49.7002 223.847 49.7746 224.238 49.9223C224.629 50.07 224.973 50.2836 225.27 50.5643L224.99 51.1014V51.0953ZM248.048 57.2251L248.041 58.1466H242.789V49.7893H248.041V50.7108H243.943V53.4876H247.262V54.3738H243.943V57.2263H248.048V57.2251Z" fill="white"/>
<path id="Vector_2" d="M73.0093 0.894693L72.5623 0L45.4525 13.0444C42.3063 11.1989 38.6299 10.1382 34.7056 10.1382H28.8504C18.8057 10.1382 10.3858 17.0846 8.32407 26.3354C8.1784 26.9872 8.06511 27.6524 7.98543 28.3274C7.94061 28.7034 7.90575 29.0842 7.88334 29.4662H7.81113V47.941H11.9458V51.3233L13.9776 52.6488L14.6549 53.0907V61.1905L11.9458 63.8465V70.0825L9.96125 71.3776L9.94133 71.391C9.36115 71.2628 8.75858 71.1933 8.13857 71.1933C4.13216 71.1933 0.78933 74.0494 0.12201 77.7954C0.11952 77.8052 0.11952 77.8149 0.11703 77.8247C0.03984 78.2629 0 78.7133 0 79.1722C0 79.5274 0.0249 79.8777 0.070965 80.2207C0.070965 80.2293 0.073455 80.2354 0.073455 80.2451C0.27141 81.6879 0.865275 83.0085 1.74176 84.0998C1.74549 84.1071 1.75047 84.112 1.75545 84.1181C2.18124 84.6454 2.67426 85.1177 3.22206 85.5266C3.22828 85.5315 3.23451 85.5352 3.24074 85.5401C4.32638 86.3469 5.62491 86.89 7.03549 87.078C7.0467 87.0804 7.0579 87.0816 7.06911 87.0829C7.41895 87.1292 7.77502 87.1512 8.13608 87.1512C9.51055 87.1512 10.8066 86.8156 11.9433 86.2236C12.1425 86.1198 12.3355 86.0088 12.5247 85.8891L12.7214 85.7622C12.7214 85.7622 12.7339 85.7537 12.7401 85.75C12.7451 85.7463 12.7513 85.7414 12.7563 85.7378C12.7588 85.7378 12.7612 85.7353 12.765 85.7341L13.9751 84.9432L24.1356 78.3166C25.3843 79.2931 26.9655 79.8765 28.6823 79.8765C32.7086 79.8765 35.9855 76.6639 35.9855 72.7165C35.9855 72.0403 35.8884 71.3861 35.7103 70.766L43.5115 65.6762L45.5433 64.3519L51.3724 60.5485L52.8092 59.6123C53.0432 59.5989 53.276 59.5793 53.5064 59.5476C54.9269 59.3609 56.2317 58.8104 57.3223 57.9987C57.8763 57.5849 58.3731 57.1064 58.8026 56.5718C59.7065 55.4452 60.3078 54.0794 60.4871 52.5866C60.5244 52.2778 60.5443 51.9617 60.5443 51.6431C60.5443 51.1268 60.4945 50.6239 60.3987 50.1357C59.9492 47.8458 58.4988 45.9014 56.513 44.7602C56.5093 44.7578 56.5043 44.7553 56.4993 44.7529C56.5018 44.7529 56.5018 44.7504 56.5043 44.7504C59.0504 43.3529 60.7759 40.681 60.7759 37.6222C60.7759 35.308 59.7899 33.2159 58.2062 31.7292C57.9224 31.4619 57.6186 31.2153 57.2986 30.9895C57.2501 30.9541 57.199 30.9212 57.148 30.887V30.8577C56.6948 30.5574 56.2105 30.2974 55.7001 30.0887C55.6963 29.9715 55.6913 29.8531 55.6864 29.7372C55.6627 29.2636 55.6229 28.7937 55.5681 28.3274C55.4884 27.6536 55.3751 26.9884 55.2294 26.3354C55.207 26.2378 55.1846 26.1413 55.161 26.0449L65.5144 20.8733C69.1523 19.1046 70.8231 14.9583 69.537 11.2843C73.3604 9.32774 74.9191 4.71025 73.008 0.894693H73.0093ZM28.8491 12.1302H34.7044C37.7671 12.1302 40.6629 12.8455 43.2264 14.1149L17.8247 26.3366H10.4082C12.4301 18.1941 19.93 12.1302 28.8491 12.1302ZM46.6887 31.7292C46.2717 32.1186 45.8957 32.5531 45.567 33.0218C45.5533 33.0413 45.5421 33.0596 45.5284 33.0792C45.5284 33.0792 45.5284 33.0816 45.5259 33.0816L43.3995 31.7292H46.69H46.6887ZM9.84048 45.9503V31.7292H28.5155L32.507 34.3327L29.3932 37.3866L27.9278 38.822L25.454 41.2473L19.9349 37.6478L22.4088 35.2225L22.8358 34.8039L23.8741 33.7859L24.8676 32.8119H11.9445V42.911L13.5195 43.9363L13.9764 44.2353L14.6536 44.6772L16.6033 45.949H9.84173L9.84048 45.9503ZM34.2325 35.4581L46.9539 43.7556L46.9714 43.7666C46.9714 43.7666 46.9714 43.7666 46.9738 43.7666L46.9763 43.7691C47.3947 44.1304 47.8528 44.4477 48.3409 44.7199C48.3446 44.7224 48.3496 44.7248 48.3546 44.7272C48.3521 44.7272 48.3521 44.7297 48.3496 44.7297C47.0747 45.451 46.0189 46.5008 45.3018 47.7616L39.4914 43.9717L37.4596 42.6461L33.1817 39.8559L31.1499 38.5303L31.1175 38.5096L31.1499 38.4766L31.8309 37.8102L34.2325 35.4556V35.4581ZM29.9908 60.7023L31.1499 59.9455L33.1817 58.6224V48.6819L37.4596 51.4722V60.8012L29.9945 65.6713C29.6957 65.6188 29.392 65.5822 29.082 65.5663V61.2967L29.992 60.7023H29.9908ZM29.0807 58.9044V54.0891L29.9198 54.6372L31.1499 55.4403V57.5568L29.0807 58.9056V58.9044ZM31.1499 53.048L29.9186 52.2448L29.0807 51.698L28.0237 51.0084L27.0501 50.3725L26.1101 49.7585L24.2763 48.5635L23.3226 47.941L20.2698 45.949L16.6855 43.6104L14.9836 42.4997L14.6536 42.2848L13.9764 41.843V34.8026H19.9636L18.2094 36.5224L16.744 37.9579L18.4696 39.0832L23.9874 42.684L25.7117 43.8081L31.1487 47.3552V53.0468L31.1499 53.048ZM13.9764 64.6716L21.3393 57.4531L21.4987 57.5568V63.8526L13.9764 68.7594V64.6729V64.6716ZM16.6855 59.1998V54.4175L18.1384 55.3647L19.615 56.3289L16.6855 59.201V59.1998ZM12.2496 72.2771L13.9764 71.1493L21.4987 66.2425V71.2128L15.2463 75.292C14.8989 74.6805 14.4719 74.119 13.9764 73.6186C13.4697 73.1071 12.892 72.6592 12.2608 72.2942C12.2533 72.2918 12.2471 72.2869 12.2396 72.2832L12.2496 72.2759V72.2771ZM16.0007 81.2314L15.9808 81.2448L13.9764 82.552L11.9445 83.8764L11.5934 84.1059L11.591 84.1083C11.5374 84.1449 11.4826 84.1815 11.4279 84.2157C11.4191 84.2194 11.4092 84.2267 11.3992 84.2328C10.4555 84.8199 9.33626 85.1604 8.13857 85.1604C7.0218 85.1604 5.97351 84.8651 5.07213 84.3475C5.06466 84.3451 5.05843 84.3402 5.05096 84.3365C4.4434 83.9862 3.90432 83.5371 3.45487 83.0098C3.44989 83.0024 3.44616 82.9988 3.44118 82.9927C2.56096 81.9552 2.03184 80.6235 2.03184 79.1722C2.03184 79.1027 2.03184 79.0343 2.03557 78.9647C2.03557 78.9562 2.03557 78.9452 2.03557 78.9379C2.07915 77.8393 2.42402 76.8177 2.99298 75.9487C3.00294 75.9304 3.0129 75.9181 3.02286 75.9023C3.92424 74.5547 5.36346 73.5832 7.03798 73.2841C7.05666 73.2805 7.07409 73.2768 7.09277 73.2744C7.43141 73.217 7.78 73.1865 8.13483 73.1865C8.88805 73.1865 9.60518 73.3195 10.2712 73.5648C10.28 73.5673 10.2887 73.5722 10.2961 73.5746C10.895 73.7968 11.449 74.1092 11.9408 74.4949C12.6006 75.0113 13.1497 75.6606 13.5444 76.4015L11.942 77.4475L10.9062 78.1213C10.5439 77.0374 9.50184 76.2526 8.27302 76.2526C7.04421 76.2526 6.00339 77.0362 5.6411 78.1213C5.55021 78.3886 5.50165 78.673 5.50165 78.9696C5.50165 79.7898 5.87266 80.5271 6.45906 81.0239C6.52131 81.0764 6.58605 81.1264 6.65203 81.1728C6.71179 81.2167 6.7728 81.257 6.8363 81.2936L6.83879 81.2961C7.2571 81.5451 7.74764 81.6866 8.27178 81.6866C8.83576 81.6866 9.36115 81.5219 9.79815 81.2375L11.9408 79.8399L13.9726 78.5143L14.1868 78.374L16.0095 77.1863L16.0144 77.1839L21.4377 73.6454C21.5945 74.8282 22.0465 75.9206 22.7175 76.8495L15.997 81.2326L16.0007 81.2314ZM28.6836 77.8857C27.6826 77.8857 26.7463 77.6111 25.9495 77.1351C25.3482 76.775 24.8265 76.3026 24.4132 75.7448C24.0522 75.2554 23.7745 74.7012 23.6052 74.1044L23.5305 72.1417V56.4888L22.8047 56.0152L21.8037 55.3634L21.4974 55.1645L21.0791 54.8911L19.9698 54.1685L16.6842 52.0239L14.6524 50.6996L13.9751 50.2577V47.9423H19.6548L22.4424 49.7609L24.2763 50.9571L27.0489 52.766V72.7178C27.0489 73.9701 28.0835 74.9844 29.3608 74.9844C30.6382 74.9844 31.674 73.9701 31.674 72.7178C31.674 71.4654 30.6395 70.4499 29.3608 70.4499C29.2662 70.4499 29.1716 70.456 29.0807 70.467V67.5644C29.5277 67.5974 29.9597 67.6853 30.368 67.8195C31.5471 68.2114 32.5393 69.0011 33.1805 70.0251C33.5415 70.6025 33.7893 71.2531 33.8951 71.95C33.9337 72.2002 33.9536 72.4566 33.9536 72.7178C33.9536 75.5678 31.5894 77.8857 28.6823 77.8857H28.6836ZM43.5127 63.2851L34.8725 68.9217C34.2425 67.9379 33.3747 67.1141 32.3501 66.5282L38.6809 62.3989L39.4889 61.8716V52.8002L40.7987 53.6534L43.5103 55.422V63.2863L43.5127 63.2851ZM45.5446 61.9607V56.7476L46.4447 57.3347L49.541 59.3548L45.5446 61.9619V61.9607ZM57.3721 48.1608C58.0257 49.053 58.4353 50.1271 58.5038 51.2903C58.5125 51.4063 58.515 51.5247 58.515 51.6431C58.515 53.0956 57.9859 54.426 57.1057 55.4635C56.655 55.9969 56.1097 56.4522 55.4971 56.8062C54.5908 57.3298 53.5362 57.6301 52.4095 57.6301C52.356 57.6301 52.3024 57.6301 52.2477 57.6276L52.2277 57.5996L52.1892 57.6252C50.7126 57.5739 49.368 57.0064 48.3371 56.0982L46.4435 54.9399L45.5446 54.3528L44.5486 53.7022L43.514 53.026L42.635 52.4523L40.8011 51.2586L39.4914 50.4042L37.4596 49.0786L33.1817 46.2884L31.1499 44.9628L27.1771 42.3715L29.6509 39.9462L31.1487 40.9227L33.1805 42.2482L37.4583 45.0385L39.4902 46.3628L43.8975 49.2373L44.5287 49.6499L45.7313 50.4335L46.3576 50.8412L49.541 52.9174L49.6606 52.9955L51.3662 54.1087C51.426 54.1526 51.487 54.1929 51.5505 54.2295L51.553 54.232C51.9713 54.481 52.4618 54.6238 52.986 54.6238C53.6794 54.6238 54.3144 54.3723 54.8012 53.9598C55.3876 53.463 55.7586 52.727 55.7586 51.908C55.7586 50.4079 54.5173 49.1909 52.9872 49.1909C51.7596 49.1909 50.7176 49.9746 50.3553 51.0597L47.5652 49.2398L47 48.8699C47.0834 48.7137 47.1743 48.5611 47.2702 48.4134C47.9997 47.3015 49.0941 46.4397 50.3864 45.9942C50.7201 45.8795 51.0662 45.7916 51.421 45.7354C51.4334 45.733 51.4422 45.7318 51.4546 45.7306H51.4571C51.782 45.7696 52.1132 45.7879 52.4481 45.7879C52.7656 45.7879 53.0768 45.7708 53.3844 45.7367C53.3844 45.7367 53.3931 45.7367 53.3968 45.7367C53.4105 45.7391 53.4217 45.7403 53.4354 45.7428C53.545 45.7611 53.6533 45.783 53.7616 45.8062C55.2394 46.1346 56.5143 46.9914 57.3708 48.1608H57.3721ZM58.698 37.6234C58.698 40.7359 56.3188 43.3138 53.2511 43.7007C53.2362 43.7032 53.2213 43.7044 53.2051 43.7056C52.9436 43.68 52.6784 43.6665 52.4083 43.6665C52.1543 43.6665 51.904 43.6788 51.6563 43.7007C51.6389 43.7007 51.6202 43.6971 51.604 43.6946C50.862 43.597 50.1623 43.3712 49.5273 43.0392C49.5149 43.0331 49.5049 43.027 49.4925 43.0209C49.4925 43.0209 49.49 43.0209 49.4888 43.0184L48.5313 42.3935C48.5189 42.3849 48.5077 42.3752 48.4952 42.3654L44.5947 39.8217L44.5585 39.7973L44.3905 39.6874C44.3905 39.6874 44.3905 39.6899 44.3905 39.6923L35.6966 34.0227L33.9723 32.8973L32.182 31.7292H39.6645L44.6146 34.8759L46.4236 36.0269L51.4895 39.2468C51.8928 39.5825 52.4145 39.7851 52.986 39.7851C54.2633 39.7851 55.2992 38.7708 55.2992 37.5184C55.2992 36.2661 54.2633 35.2506 52.986 35.2506C52.0784 35.2506 51.2952 35.762 50.9155 36.5078L47.2826 34.1972L47.2727 34.1899C47.2727 34.1899 47.2727 34.1875 47.2751 34.1875L47.315 34.1301C48.128 32.9827 49.3331 32.1198 50.7375 31.7267H54.16C56.777 32.4591 58.698 34.8234 58.698 37.6198V37.6234ZM53.6421 29.5419C53.6246 29.5395 53.6072 29.537 53.5898 29.5346C53.5524 29.5297 53.5151 29.526 53.4765 29.5211C53.1391 29.4796 52.7955 29.4589 52.4481 29.4589C52.3124 29.4589 52.1779 29.4613 52.0435 29.4687H9.91767C9.94257 29.0854 9.98116 28.7058 10.031 28.3299H53.5225C53.5748 28.7302 53.6147 29.1342 53.6408 29.5431L53.6421 29.5419ZM64.6155 19.09L54.5534 23.9809L52.7158 24.8731L49.7054 26.3366H37.9688L50.4661 20.3838L52.3087 19.5062L67.6969 12.1766C68.5024 14.8558 67.2512 17.8084 64.6155 19.09ZM68.4663 9.5865L51.096 17.8657L49.2161 18.7604L33.3187 26.3379H22.4386L45.3267 15.3257L47.3934 14.3309L71.5576 2.70483C71.9025 3.8534 71.8801 5.07643 71.4767 6.23354C70.9625 7.70802 69.8931 8.89931 68.4663 9.5865Z" fill="url(#paint0_linear_1448_16356)"/>
</g>
<defs>
<linearGradient id="paint0_linear_1448_16356" x1="0" y1="43.5762" x2="73.826" y2="43.5762" gradientUnits="userSpaceOnUse">
<stop stop-color="#0DF9D9"/>
<stop offset="0.38" stop-color="#0FD6DD"/>
<stop offset="1" stop-color="#1595E7"/>
</linearGradient>
</defs>
</svg>
